<svg xmlns="http://www.w3.org/2000/svg" viewBox="0 0 800 600" width="800" height="600" role="img" aria-label="Backdrop"><rect width="800" height="600" fill="#F6F7F9"/><g stroke="#6B7280" stroke-width="1.25" opacity=".55"><path d="M18 18h22M18 18v22"/><path d="M782 18h-22M782 18v22"/><path d="M18 582h22M18 582v-22"/><path d="M782 582h-22M782 582v-22"/></g><rect x="110" y="110" width="580" height="330" rx="3" fill="#0057FF"/><rect x="110" y="110" width="580" height="330" rx="3" fill="none" stroke="#101114" stroke-width="8" opacity=".25"/><circle cx="170" cy="190" r="26" fill="#FFFFFF" opacity=".14"/><circle cx="256" cy="220" r="26" fill="#FFFFFF" opacity=".14"/><circle cx="342" cy="190" r="26" fill="#FFFFFF" opacity=".14"/><circle cx="428" cy="220" r="26" fill="#FFFFFF" opacity=".14"/><circle cx="514" cy="190" r="26" fill="#FFFFFF" opacity=".14"/><circle cx="600" cy="220" r="26" fill="#FFFFFF" opacity=".14"/><circle cx="686" cy="190" r="26" fill="#FFFFFF" opacity=".14"/><rect x="250" y="238" width="300" height="26" rx="4" fill="#FFFFFF" opacity=".95"/><rect x="310" y="280" width="180" height="12" rx="3" fill="#FFFFFF" opacity=".55"/><circle cx="400" cy="360" r="34" fill="#EC008C"/><path d="M150 440v70M650 440v70" stroke="#6B7280" stroke-width="7" stroke-linecap="round"/><path d="M120 510h60M620 510h60" stroke="#6B7280" stroke-width="7" stroke-linecap="round"/><text x="400.0" y="566" text-anchor="middle" fill="#6B7280" font-family="Be Vietnam Pro, system-ui, sans-serif" font-size="15" font-weight="500">Backdrop</text></svg>