<svg xmlns="http://www.w3.org/2000/svg" viewBox="0 0 800 600" width="800" height="600" role="img" aria-label="Bạt Hiflex"><rect width="800" height="600" fill="#F6F7F9"/><g stroke="#6B7280" stroke-width="1.25" opacity=".55"><path d="M18 18h22M18 18v22"/><path d="M782 18h-22M782 18v22"/><path d="M18 582h22M18 582v-22"/><path d="M782 582h-22M782 582v-22"/></g><rect x="130" y="150" width="540" height="280" rx="3" fill="#0057FF"/><rect x="150" y="170" width="500" height="240" rx="2" fill="none" stroke="#FFFFFF" stroke-width="1.5" opacity=".45"/><rect x="196" y="228" width="300" height="22" rx="3" fill="#FFFFFF" opacity=".9"/><rect x="196" y="266" width="220" height="14" rx="3" fill="#FFFFFF" opacity=".6"/><rect x="196" y="292" width="250" height="14" rx="3" fill="#FFFFFF" opacity=".6"/><circle cx="560" cy="290" r="46" fill="#EC008C"/><circle cx="130" cy="150" r="7" fill="#F6F7F9" stroke="#6B7280" stroke-width="2"/><circle cx="130" cy="430" r="7" fill="#F6F7F9" stroke="#6B7280" stroke-width="2"/><circle cx="400" cy="150" r="7" fill="#F6F7F9" stroke="#6B7280" stroke-width="2"/><circle cx="400" cy="430" r="7" fill="#F6F7F9" stroke="#6B7280" stroke-width="2"/><circle cx="670" cy="150" r="7" fill="#F6F7F9" stroke="#6B7280" stroke-width="2"/><circle cx="670" cy="430" r="7" fill="#F6F7F9" stroke="#6B7280" stroke-width="2"/><text x="400.0" y="566" text-anchor="middle" fill="#6B7280" font-family="Be Vietnam Pro, system-ui, sans-serif" font-size="15" font-weight="500">Bạt Hiflex</text></svg>