<svg xmlns="http://www.w3.org/2000/svg" viewBox="0 0 800 600" width="800" height="600" role="img" aria-label="Biển Alu"><rect width="800" height="600" fill="#F6F7F9"/><g stroke="#6B7280" stroke-width="1.25" opacity=".55"><path d="M18 18h22M18 18v22"/><path d="M782 18h-22M782 18v22"/><path d="M18 582h22M18 582v-22"/><path d="M782 582h-22M782 582v-22"/></g><rect x="130" y="180" width="540" height="200" rx="6" fill="#C9CED6"/><rect x="130" y="180" width="540" height="200" rx="6" fill="none" stroke="#101114" stroke-width="6" opacity=".3"/><g stroke="#FFFFFF" opacity=".35" stroke-width="1"><path d="M160 180v200"/><path d="M196 180v200"/><path d="M232 180v200"/><path d="M268 180v200"/><path d="M304 180v200"/><path d="M340 180v200"/><path d="M376 180v200"/><path d="M412 180v200"/><path d="M448 180v200"/><path d="M484 180v200"/><path d="M520 180v200"/><path d="M556 180v200"/><path d="M592 180v200"/><path d="M628 180v200"/><path d="M664 180v200"/></g><rect x="180" y="240" width="270" height="26" rx="4" fill="#101114" opacity=".9"/><rect x="180" y="286" width="180" height="14" rx="3" fill="#101114" opacity=".55"/><circle cx="590" cy="280" r="38" fill="#EC008C"/><path d="M200 380v90M600 380v90" stroke="#6B7280" stroke-width="8" stroke-linecap="round"/><text x="400.0" y="566" text-anchor="middle" fill="#6B7280" font-family="Be Vietnam Pro, system-ui, sans-serif" font-size="15" font-weight="500">Biển Alu</text></svg>