<svg xmlns="http://www.w3.org/2000/svg" viewBox="0 0 800 600" width="800" height="600" role="img" aria-label="Biển LED"><rect width="800" height="600" fill="#F6F7F9"/><g stroke="#6B7280" stroke-width="1.25" opacity=".55"><path d="M18 18h22M18 18v22"/><path d="M782 18h-22M782 18v22"/><path d="M18 582h22M18 582v-22"/><path d="M782 582h-22M782 582v-22"/></g><defs><linearGradient id="lb" x1="0" y1="0" x2="0" y2="1"><stop offset="0" stop-color="#FFFFFF"/><stop offset="1" stop-color="#DCE6FF"/></linearGradient></defs><rect x="150" y="160" width="500" height="240" rx="6" fill="#101114"/><rect x="164" y="174" width="472" height="212" rx="3" fill="url(#lb)"/><rect x="206" y="238" width="250" height="26" rx="4" fill="#0057FF"/><rect x="206" y="284" width="160" height="14" rx="3" fill="#6B7280" opacity=".6"/><circle cx="556" cy="280" r="36" fill="#EC008C"/><path d="M190 174v212" stroke="#FFFFFF" opacity=".5" stroke-width="8"/><path d="M244 174v212" stroke="#FFFFFF" opacity=".5" stroke-width="8"/><path d="M298 174v212" stroke="#FFFFFF" opacity=".5" stroke-width="8"/><path d="M352 174v212" stroke="#FFFFFF" opacity=".5" stroke-width="8"/><path d="M406 174v212" stroke="#FFFFFF" opacity=".5" stroke-width="8"/><path d="M460 174v212" stroke="#FFFFFF" opacity=".5" stroke-width="8"/><path d="M514 174v212" stroke="#FFFFFF" opacity=".5" stroke-width="8"/><path d="M568 174v212" stroke="#FFFFFF" opacity=".5" stroke-width="8"/><path d="M622 174v212" stroke="#FFFFFF" opacity=".5" stroke-width="8"/><path d="M220 400v70M580 400v70" stroke="#6B7280" stroke-width="8" stroke-linecap="round"/><text x="400.0" y="566" text-anchor="middle" fill="#6B7280" font-family="Be Vietnam Pro, system-ui, sans-serif" font-size="15" font-weight="500">Biển LED</text></svg>