<svg xmlns="http://www.w3.org/2000/svg" viewBox="0 0 800 600" width="800" height="600" role="img" aria-label="Biển công ty"><rect width="800" height="600" fill="#F6F7F9"/><g stroke="#6B7280" stroke-width="1.25" opacity=".55"><path d="M18 18h22M18 18v22"/><path d="M782 18h-22M782 18v22"/><path d="M18 582h22M18 582v-22"/><path d="M782 582h-22M782 582v-22"/></g><rect x="150" y="180" width="500" height="220" rx="4" fill="#FFFFFF" stroke="#D9DCE3"/><rect x="221" y="257" width="66" height="86" rx="4" fill="#101114" opacity=".22"/><rect x="214" y="250" width="66" height="86" rx="4" fill="#0057FF"/><text x="247" y="313" text-anchor="middle" fill="#FFFFFF" font-family="Be Vietnam Pro, system-ui, sans-serif" font-size="44" font-weight="700">I</text><rect x="295" y="257" width="66" height="86" rx="4" fill="#101114" opacity=".22"/><rect x="288" y="250" width="66" height="86" rx="4" fill="#0057FF"/><text x="321" y="313" text-anchor="middle" fill="#FFFFFF" font-family="Be Vietnam Pro, system-ui, sans-serif" font-size="44" font-weight="700">N</text><rect x="387" y="257" width="66" height="86" rx="4" fill="#101114" opacity=".22"/><rect x="380" y="250" width="66" height="86" rx="4" fill="#0057FF"/><text x="413" y="313" text-anchor="middle" fill="#FFFFFF" font-family="Be Vietnam Pro, system-ui, sans-serif" font-size="44" font-weight="700">A</text><rect x="473" y="257" width="66" height="86" rx="4" fill="#101114" opacity=".22"/><rect x="466" y="250" width="66" height="86" rx="4" fill="#0057FF"/><text x="499" y="313" text-anchor="middle" fill="#FFFFFF" font-family="Be Vietnam Pro, system-ui, sans-serif" font-size="44" font-weight="700">N</text><circle cx="566" cy="293" r="20" fill="#EC008C"/><text x="400.0" y="566" text-anchor="middle" fill="#6B7280" font-family="Be Vietnam Pro, system-ui, sans-serif" font-size="15" font-weight="500">Biển công ty</text></svg>