<svg xmlns="http://www.w3.org/2000/svg" viewBox="0 0 800 600" width="800" height="600" role="img" aria-label="Danh thiếp"><rect width="800" height="600" fill="#F6F7F9"/><g stroke="#6B7280" stroke-width="1.25" opacity=".55"><path d="M18 18h22M18 18v22"/><path d="M782 18h-22M782 18v22"/><path d="M18 582h22M18 582v-22"/><path d="M782 582h-22M782 582v-22"/></g><rect x="230" y="290" width="300" height="180" rx="8" fill="#FFFFFF" stroke="#D9DCE3" transform="rotate(-7 380 380)"/><rect x="260" y="255" width="300" height="180" rx="8" fill="#FFFFFF" stroke="#D9DCE3" transform="rotate(4 410 345)"/><rect x="250" y="180" width="300" height="180" rx="8" fill="#0057FF"/><rect x="278" y="212" width="120" height="15" rx="3" fill="#FFFFFF" opacity=".95"/><rect x="278" y="238" width="80" height="9" rx="3" fill="#FFFFFF" opacity=".6"/><rect x="278" y="304" width="150" height="8" rx="3" fill="#FFFFFF" opacity=".45"/><rect x="278" y="320" width="120" height="8" rx="3" fill="#FFFFFF" opacity=".45"/><circle cx="504" cy="216" r="16" fill="#EC008C"/><text x="400.0" y="566" text-anchor="middle" fill="#6B7280" font-family="Be Vietnam Pro, system-ui, sans-serif" font-size="15" font-weight="500">Danh thiếp</text></svg>