<svg xmlns="http://www.w3.org/2000/svg" viewBox="0 0 800 600" width="800" height="600" role="img" aria-label="Decal kính mờ"><rect width="800" height="600" fill="#F6F7F9"/><g stroke="#6B7280" stroke-width="1.25" opacity=".55"><path d="M18 18h22M18 18v22"/><path d="M782 18h-22M782 18v22"/><path d="M18 582h22M18 582v-22"/><path d="M782 582h-22M782 582v-22"/></g><rect x="150" y="120" width="500" height="330" rx="4" fill="#EAF1FF" stroke="#D9DCE3"/><path d="M150 120l500 330" stroke="#FFFFFF" stroke-width="40" opacity=".55"/><rect x="150" y="230" width="500" height="120" fill="#FFFFFF" opacity=".9"/><g fill="#D9DCE3" opacity=".6"><rect x="150" y="230" width="12" height="12"/><rect x="150" y="254" width="12" height="12"/><rect x="150" y="278" width="12" height="12"/><rect x="150" y="302" width="12" height="12"/><rect x="150" y="326" width="12" height="12"/><rect x="162" y="242" width="12" height="12"/><rect x="162" y="266" width="12" height="12"/><rect x="162" y="290" width="12" height="12"/><rect x="162" y="314" width="12" height="12"/><rect x="162" y="338" width="12" height="12"/><rect x="174" y="230" width="12" height="12"/><rect x="174" y="254" width="12" height="12"/><rect x="174" y="278" width="12" height="12"/><rect x="174" y="302" width="12" height="12"/><rect x="174" y="326" width="12" height="12"/><rect x="186" y="242" width="12" height="12"/><rect x="186" y="266" width="12" height="12"/><rect x="186" y="290" width="12" height="12"/><rect x="186" y="314" width="12" height="12"/><rect x="186" y="338" width="12" height="12"/><rect x="198" y="230" width="12" height="12"/><rect x="198" y="254" width="12" height="12"/><rect x="198" y="278" width="12" height="12"/><rect x="198" y="302" width="12" height="12"/><rect x="198" y="326" width="12" height="12"/><rect x="210" y="242" width="12" height="12"/><rect x="210" y="266" width="12" height="12"/><rect x="210" y="290" width="12" height="12"/><rect x="210" y="314" width="12" height="12"/><rect x="210" y="338" width="12" height="12"/><rect x="222" y="230" width="12" height="12"/><rect x="222" y="254" width="12" height="12"/><rect x="222" y="278" width="12" height="12"/><rect x="222" y="302" width="12" height="12"/><rect x="222" y="326" width="12" height="12"/><rect x="234" y="242" width="12" height="12"/><rect x="234" y="266" width="12" height="12"/><rect x="234" y="290" width="12" height="12"/><rect x="234" y="314" width="12" height="12"/><rect x="234" y="338" width="12" height="12"/><rect x="246" y="230" width="12" height="12"/><rect x="246" y="254" width="12" height="12"/><rect x="246" y="278" width="12" height="12"/><rect x="246" y="302" width="12" height="12"/><rect x="246" y="326" width="12" height="12"/><rect x="258" y="242" width="12" height="12"/><rect x="258" y="266" width="12" height="12"/><rect x="258" y="290" width="12" height="12"/><rect x="258" y="314" width="12" height="12"/><rect x="258" y="338" width="12" height="12"/><rect x="270" y="230" width="12" height="12"/><rect x="270" y="254" width="12" height="12"/><rect x="270" y="278" width="12" height="12"/><rect x="270" y="302" width="12" height="12"/><rect x="270" y="326" width="12" height="12"/><rect x="282" y="242" width="12" height="12"/><rect x="282" y="266" width="12" height="12"/><rect x="282" y="290" width="12" height="12"/><rect x="282" y="314" width="12" height="12"/><rect x="282" y="338" width="12" height="12"/><rect x="294" y="230" width="12" height="12"/><rect x="294" y="254" width="12" height="12"/><rect x="294" y="278" width="12" height="12"/><rect x="294" y="302" width="12" height="12"/><rect x="294" y="326" width="12" height="12"/><rect x="306" y="242" width="12" height="12"/><rect x="306" y="266" width="12" height="12"/><rect x="306" y="290" width="12" height="12"/><rect x="306" y="314" width="12" height="12"/><rect x="306" y="338" width="12" height="12"/><rect x="318" y="230" width="12" height="12"/><rect x="318" y="254" width="12" height="12"/><rect x="318" y="278" width="12" height="12"/><rect x="318" y="302" width="12" height="12"/><rect x="318" y="326" width="12" height="12"/><rect x="330" y="242" width="12" height="12"/><rect x="330" y="266" width="12" height="12"/><rect x="330" y="290" width="12" height="12"/><rect x="330" y="314" width="12" height="12"/><rect x="330" y="338" width="12" height="12"/><rect x="342" y="230" width="12" height="12"/><rect x="342" y="254" width="12" height="12"/><rect x="342" y="278" width="12" height="12"/><rect x="342" y="302" width="12" height="12"/><rect x="342" y="326" width="12" height="12"/><rect x="354" y="242" width="12" height="12"/><rect x="354" y="266" width="12" height="12"/><rect x="354" y="290" width="12" height="12"/><rect x="354" y="314" width="12" height="12"/><rect x="354" y="338" width="12" height="12"/><rect x="366" y="230" width="12" height="12"/><rect x="366" y="254" width="12" height="12"/><rect x="366" y="278" width="12" height="12"/><rect x="366" y="302" width="12" height="12"/><rect x="366" y="326" width="12" height="12"/><rect x="378" y="242" width="12" height="12"/><rect x="378" y="266" width="12" height="12"/><rect x="378" y="290" width="12" height="12"/><rect x="378" y="314" width="12" height="12"/><rect x="378" y="338" width="12" height="12"/><rect x="390" y="230" width="12" height="12"/><rect x="390" y="254" width="12" height="12"/><rect x="390" y="278" width="12" height="12"/><rect x="390" y="302" width="12" height="12"/><rect x="390" y="326" width="12" height="12"/><rect x="402" y="242" width="12" height="12"/><rect x="402" y="266" width="12" height="12"/><rect x="402" y="290" width="12" height="12"/><rect x="402" y="314" width="12" height="12"/><rect x="402" y="338" width="12" height="12"/><rect x="414" y="230" width="12" height="12"/><rect x="414" y="254" width="12" height="12"/><rect x="414" y="278" width="12" height="12"/><rect x="414" y="302" width="12" height="12"/><rect x="414" y="326" width="12" height="12"/><rect x="426" y="242" width="12" height="12"/><rect x="426" y="266" width="12" height="12"/><rect x="426" y="290" width="12" height="12"/><rect x="426" y="314" width="12" height="12"/><rect x="426" y="338" width="12" height="12"/><rect x="438" y="230" width="12" height="12"/><rect x="438" y="254" width="12" height="12"/><rect x="438" y="278" width="12" height="12"/><rect x="438" y="302" width="12" height="12"/><rect x="438" y="326" width="12" height="12"/><rect x="450" y="242" width="12" height="12"/><rect x="450" y="266" width="12" height="12"/><rect x="450" y="290" width="12" height="12"/><rect x="450" y="314" width="12" height="12"/><rect x="450" y="338" width="12" height="12"/><rect x="462" y="230" width="12" height="12"/><rect x="462" y="254" width="12" height="12"/><rect x="462" y="278" width="12" height="12"/><rect x="462" y="302" width="12" height="12"/><rect x="462" y="326" width="12" height="12"/><rect x="474" y="242" width="12" height="12"/><rect x="474" y="266" width="12" height="12"/><rect x="474" y="290" width="12" height="12"/><rect x="474" y="314" width="12" height="12"/><rect x="474" y="338" width="12" height="12"/><rect x="486" y="230" width="12" height="12"/><rect x="486" y="254" width="12" height="12"/><rect x="486" y="278" width="12" height="12"/><rect x="486" y="302" width="12" height="12"/><rect x="486" y="326" width="12" height="12"/><rect x="498" y="242" width="12" height="12"/><rect x="498" y="266" width="12" height="12"/><rect x="498" y="290" width="12" height="12"/><rect x="498" y="314" width="12" height="12"/><rect x="498" y="338" width="12" height="12"/><rect x="510" y="230" width="12" height="12"/><rect x="510" y="254" width="12" height="12"/><rect x="510" y="278" width="12" height="12"/><rect x="510" y="302" width="12" height="12"/><rect x="510" y="326" width="12" height="12"/><rect x="522" y="242" width="12" height="12"/><rect x="522" y="266" width="12" height="12"/><rect x="522" y="290" width="12" height="12"/><rect x="522" y="314" width="12" height="12"/><rect x="522" y="338" width="12" height="12"/><rect x="534" y="230" width="12" height="12"/><rect x="534" y="254" width="12" height="12"/><rect x="534" y="278" width="12" height="12"/><rect x="534" y="302" width="12" height="12"/><rect x="534" y="326" width="12" height="12"/><rect x="546" y="242" width="12" height="12"/><rect x="546" y="266" width="12" height="12"/><rect x="546" y="290" width="12" height="12"/><rect x="546" y="314" width="12" height="12"/><rect x="546" y="338" width="12" height="12"/><rect x="558" y="230" width="12" height="12"/><rect x="558" y="254" width="12" height="12"/><rect x="558" y="278" width="12" height="12"/><rect x="558" y="302" width="12" height="12"/><rect x="558" y="326" width="12" height="12"/><rect x="570" y="242" width="12" height="12"/><rect x="570" y="266" width="12" height="12"/><rect x="570" y="290" width="12" height="12"/><rect x="570" y="314" width="12" height="12"/><rect x="570" y="338" width="12" height="12"/><rect x="582" y="230" width="12" height="12"/><rect x="582" y="254" width="12" height="12"/><rect x="582" y="278" width="12" height="12"/><rect x="582" y="302" width="12" height="12"/><rect x="582" y="326" width="12" height="12"/><rect x="594" y="242" width="12" height="12"/><rect x="594" y="266" width="12" height="12"/><rect x="594" y="290" width="12" height="12"/><rect x="594" y="314" width="12" height="12"/><rect x="594" y="338" width="12" height="12"/><rect x="606" y="230" width="12" height="12"/><rect x="606" y="254" width="12" height="12"/><rect x="606" y="278" width="12" height="12"/><rect x="606" y="302" width="12" height="12"/><rect x="606" y="326" width="12" height="12"/><rect x="618" y="242" width="12" height="12"/><rect x="618" y="266" width="12" height="12"/><rect x="618" y="290" width="12" height="12"/><rect x="618" y="314" width="12" height="12"/><rect x="618" y="338" width="12" height="12"/><rect x="630" y="230" width="12" height="12"/><rect x="630" y="254" width="12" height="12"/><rect x="630" y="278" width="12" height="12"/><rect x="630" y="302" width="12" height="12"/><rect x="630" y="326" width="12" height="12"/><rect x="642" y="242" width="8" height="12"/><rect x="642" y="266" width="8" height="12"/><rect x="642" y="290" width="8" height="12"/><rect x="642" y="314" width="8" height="12"/><rect x="642" y="338" width="8" height="12"/></g><rect x="150" y="230" width="500" height="120" fill="#FFFFFF" opacity=".55"/><rect x="300" y="270" width="200" height="18" rx="3" fill="#0057FF" opacity=".75"/><rect x="340" y="302" width="120" height="10" rx="3" fill="#6B7280" opacity=".6"/><path d="M150 230h500M150 350h500" stroke="#0057FF" stroke-width="1.5" opacity=".5"/><rect x="150" y="120" width="500" height="330" rx="4" fill="none" stroke="#6B7280" stroke-width="6"/><text x="400.0" y="566" text-anchor="middle" fill="#6B7280" font-family="Be Vietnam Pro, system-ui, sans-serif" font-size="15" font-weight="500">Decal kính mờ</text></svg>