<svg xmlns="http://www.w3.org/2000/svg" viewBox="0 0 800 600" width="800" height="600" role="img" aria-label="Hộp đèn"><rect width="800" height="600" fill="#F6F7F9"/><g stroke="#6B7280" stroke-width="1.25" opacity=".55"><path d="M18 18h22M18 18v22"/><path d="M782 18h-22M782 18v22"/><path d="M18 582h22M18 582v-22"/><path d="M782 582h-22M782 582v-22"/></g><defs><filter id="g" x="-50%" y="-50%" width="200%" height="200%"><feGaussianBlur stdDeviation="12" result="b"/><feMerge><feMergeNode in="b"/><feMergeNode in="SourceGraphic"/></feMerge></filter></defs><rect x="140" y="170" width="520" height="220" rx="8" fill="#101114"/><g filter="url(#g)"><rect x="186" y="230" width="290" height="24" rx="4" fill="#EC008C"/><rect x="186" y="278" width="190" height="14" rx="3" fill="#0057FF"/><circle cx="576" cy="280" r="34" fill="none" stroke="#EC008C" stroke-width="7"/></g><circle cx="170" cy="360" r="3.5" fill="#EC008C" opacity=".75"/><circle cx="214" cy="360" r="3.5" fill="#EC008C" opacity=".75"/><circle cx="258" cy="360" r="3.5" fill="#EC008C" opacity=".75"/><circle cx="302" cy="360" r="3.5" fill="#EC008C" opacity=".75"/><circle cx="346" cy="360" r="3.5" fill="#EC008C" opacity=".75"/><circle cx="390" cy="360" r="3.5" fill="#EC008C" opacity=".75"/><circle cx="434" cy="360" r="3.5" fill="#EC008C" opacity=".75"/><circle cx="478" cy="360" r="3.5" fill="#EC008C" opacity=".75"/><circle cx="522" cy="360" r="3.5" fill="#EC008C" opacity=".75"/><circle cx="566" cy="360" r="3.5" fill="#EC008C" opacity=".75"/><circle cx="610" cy="360" r="3.5" fill="#EC008C" opacity=".75"/><circle cx="654" cy="360" r="3.5" fill="#EC008C" opacity=".75"/><path d="M210 390v80M590 390v80" stroke="#6B7280" stroke-width="8" stroke-linecap="round"/><text x="400.0" y="566" text-anchor="middle" fill="#6B7280" font-family="Be Vietnam Pro, system-ui, sans-serif" font-size="15" font-weight="500">Hộp đèn</text></svg>