<svg xmlns="http://www.w3.org/2000/svg" viewBox="0 0 800 600" width="800" height="600" role="img" aria-label="Menu"><rect width="800" height="600" fill="#F6F7F9"/><g stroke="#6B7280" stroke-width="1.25" opacity=".55"><path d="M18 18h22M18 18v22"/><path d="M782 18h-22M782 18v22"/><path d="M18 582h22M18 582v-22"/><path d="M782 582h-22M782 582v-22"/></g><rect x="280" y="90" width="240" height="400" rx="3" fill="#FFFFFF" stroke="#D9DCE3"/><rect x="280" y="90" width="240" height="168" rx="3" fill="#0057FF" opacity=".85"/><rect x="304" y="290" width="192" height="18" rx="3" fill="#101114" opacity=".8"/><rect x="304" y="322" width="160" height="10" rx="3" fill="#6B7280" opacity=".5"/><rect x="304" y="346" width="180" height="10" rx="3" fill="#6B7280" opacity=".5"/><rect x="304" y="402" width="90" height="26" rx="13" fill="#EC008C"/><text x="400.0" y="566" text-anchor="middle" fill="#6B7280" font-family="Be Vietnam Pro, system-ui, sans-serif" font-size="15" font-weight="500">Menu</text></svg>