<svg xmlns="http://www.w3.org/2000/svg" viewBox="0 0 800 600" width="800" height="600" role="img" aria-label="Menu"><rect width="800" height="600" fill="#F6F7F9"/><g stroke="#6B7280" stroke-width="1.25" opacity=".55"><path d="M18 18h22M18 18v22"/><path d="M782 18h-22M782 18v22"/><path d="M18 582h22M18 582v-22"/><path d="M782 582h-22M782 582v-22"/></g><rect x="290" y="90" width="240" height="390" rx="4" fill="#FFFFFF" stroke="#D9DCE3"/><rect x="290" y="90" width="240" height="110" fill="#101114"/><rect x="322" y="132" width="120" height="16" rx="3" fill="#FFFFFF" opacity=".9"/><rect x="322" y="158" width="70" height="9" rx="3" fill="#EC008C"/><rect x="316" y="216" width="60" height="10" rx="3" fill="#0057FF"/><rect x="316" y="240" width="130" height="9" rx="3" fill="#6B7280" opacity=".45"/><rect x="488" y="240" width="40" height="9" rx="3" fill="#0057FF" opacity=".6"/><rect x="316" y="268" width="160" height="9" rx="3" fill="#6B7280" opacity=".45"/><rect x="488" y="268" width="40" height="9" rx="3" fill="#0057FF" opacity=".6"/><rect x="316" y="296" width="120" height="9" rx="3" fill="#6B7280" opacity=".45"/><rect x="488" y="296" width="40" height="9" rx="3" fill="#0057FF" opacity=".6"/><rect x="316" y="324" width="150" height="9" rx="3" fill="#6B7280" opacity=".45"/><rect x="488" y="324" width="40" height="9" rx="3" fill="#0057FF" opacity=".6"/><rect x="316" y="352" width="140" height="9" rx="3" fill="#6B7280" opacity=".45"/><rect x="488" y="352" width="40" height="9" rx="3" fill="#0057FF" opacity=".6"/><rect x="316" y="380" width="110" height="9" rx="3" fill="#6B7280" opacity=".45"/><rect x="488" y="380" width="40" height="9" rx="3" fill="#0057FF" opacity=".6"/><text x="400.0" y="566" text-anchor="middle" fill="#6B7280" font-family="Be Vietnam Pro, system-ui, sans-serif" font-size="15" font-weight="500">Menu</text></svg>