<svg xmlns="http://www.w3.org/2000/svg" viewBox="0 0 800 600" width="800" height="600" role="img" aria-label="Standee chữ X"><rect width="800" height="600" fill="#F6F7F9"/><g stroke="#6B7280" stroke-width="1.25" opacity=".55"><path d="M18 18h22M18 18v22"/><path d="M782 18h-22M782 18v22"/><path d="M18 582h22M18 582v-22"/><path d="M782 582h-22M782 582v-22"/></g><path d="M300 120L500 470M500 120L300 470" stroke="#6B7280" stroke-width="7" stroke-linecap="round"/><rect x="290" y="105" width="220" height="380" rx="3" fill="#FFFFFF" stroke="#D9DCE3"/><rect x="290" y="105" width="220" height="150" fill="#0057FF"/><rect x="314" y="286" width="172" height="16" rx="3" fill="#101114" opacity=".8"/><rect x="314" y="316" width="130" height="10" rx="3" fill="#6B7280" opacity=".5"/><circle cx="400" cy="410" r="34" fill="#EC008C" opacity=".85"/><text x="400.0" y="566" text-anchor="middle" fill="#6B7280" font-family="Be Vietnam Pro, system-ui, sans-serif" font-size="15" font-weight="500">Standee chữ X</text></svg>