<svg xmlns="http://www.w3.org/2000/svg" viewBox="0 0 800 600" width="800" height="600" role="img" aria-label="Sticker bế theo hình"><rect width="800" height="600" fill="#F6F7F9"/><g stroke="#6B7280" stroke-width="1.25" opacity=".55"><path d="M18 18h22M18 18v22"/><path d="M782 18h-22M782 18v22"/><path d="M18 582h22M18 582v-22"/><path d="M782 582h-22M782 582v-22"/></g><rect x="180" y="110" width="440" height="360" rx="4" fill="#FFFFFF" stroke="#D9DCE3"/><path d="M300 200l26 54 60 8-44 42 11 59-53-28-53 28 11-59-44-42 60-8z" fill="#EC008C" opacity=".2" stroke="#EC008C" stroke-width="1.5"/><circle cx="470" cy="230" r="52" fill="#0057FF" opacity=".18" stroke="#0057FF" stroke-width="1.5"/><rect x="240" y="340" width="120" height="86" rx="24" fill="#0057FF" opacity=".18" stroke="#0057FF" stroke-width="1.5"/><path d="M470 340c34 0 62 22 62 50s-28 44-62 44c-11 0-21-2-30-6l-32 12 10-30c-6-6-10-13-10-20 0-28 28-50 62-50z" fill="#EC008C" opacity=".2" stroke="#EC008C" stroke-width="1.5"/><rect x="196" y="126" width="408" height="328" rx="6" fill="none" stroke="#6B7280" stroke-width="1" stroke-dasharray="5 4" opacity=".8"/><text x="400.0" y="566" text-anchor="middle" fill="#6B7280" font-family="Be Vietnam Pro, system-ui, sans-serif" font-size="15" font-weight="500">Sticker bế theo hình</text></svg>