<svg xmlns="http://www.w3.org/2000/svg" viewBox="0 0 800 600" width="800" height="600" role="img" aria-label="Tem nhựa sữa"><rect width="800" height="600" fill="#F6F7F9"/><g stroke="#6B7280" stroke-width="1.25" opacity=".55"><path d="M18 18h22M18 18v22"/><path d="M782 18h-22M782 18v22"/><path d="M18 582h22M18 582v-22"/><path d="M782 582h-22M782 582v-22"/></g><rect x="180" y="110" width="440" height="360" rx="4" fill="#FFFFFF" stroke="#D9DCE3"/><rect x="205" y="135" width="64" height="64" rx="9" fill="#0057FF" opacity=".16" stroke="#0057FF" stroke-width="1.5"/><rect x="289" y="135" width="64" height="64" rx="9" fill="#0057FF" opacity=".16" stroke="#0057FF" stroke-width="1.5"/><rect x="373" y="135" width="64" height="64" rx="9" fill="#0057FF" opacity=".16" stroke="#0057FF" stroke-width="1.5"/><rect x="457" y="135" width="64" height="64" rx="9" fill="#0057FF" opacity=".16" stroke="#0057FF" stroke-width="1.5"/><rect x="541" y="135" width="64" height="64" rx="9" fill="#0057FF" opacity=".16" stroke="#0057FF" stroke-width="1.5"/><rect x="205" y="219" width="64" height="64" rx="9" fill="#0057FF" opacity=".16" stroke="#0057FF" stroke-width="1.5"/><rect x="289" y="219" width="64" height="64" rx="9" fill="#0057FF" opacity=".16" stroke="#0057FF" stroke-width="1.5"/><rect x="373" y="219" width="64" height="64" rx="9" fill="#0057FF" opacity=".16" stroke="#0057FF" stroke-width="1.5"/><rect x="457" y="219" width="64" height="64" rx="9" fill="#0057FF" opacity=".16" stroke="#0057FF" stroke-width="1.5"/><rect x="541" y="219" width="64" height="64" rx="9" fill="#0057FF" opacity=".16" stroke="#0057FF" stroke-width="1.5"/><rect x="205" y="303" width="64" height="64" rx="9" fill="#0057FF" opacity=".16" stroke="#0057FF" stroke-width="1.5"/><rect x="289" y="303" width="64" height="64" rx="9" fill="#0057FF" opacity=".16" stroke="#0057FF" stroke-width="1.5"/><rect x="373" y="303" width="64" height="64" rx="9" fill="#0057FF" opacity=".16" stroke="#0057FF" stroke-width="1.5"/><rect x="457" y="303" width="64" height="64" rx="9" fill="#0057FF" opacity=".16" stroke="#0057FF" stroke-width="1.5"/><rect x="541" y="303" width="64" height="64" rx="9" fill="#0057FF" opacity=".16" stroke="#0057FF" stroke-width="1.5"/><rect x="205" y="387" width="64" height="64" rx="9" fill="#0057FF" opacity=".16" stroke="#0057FF" stroke-width="1.5"/><rect x="289" y="387" width="64" height="64" rx="9" fill="#0057FF" opacity=".16" stroke="#0057FF" stroke-width="1.5"/><rect x="373" y="387" width="64" height="64" rx="9" fill="#0057FF" opacity=".16" stroke="#0057FF" stroke-width="1.5"/><rect x="457" y="387" width="64" height="64" rx="9" fill="#0057FF" opacity=".16" stroke="#0057FF" stroke-width="1.5"/><rect x="541" y="387" width="64" height="64" rx="9" fill="#0057FF" opacity=".16" stroke="#0057FF" stroke-width="1.5"/><text x="400.0" y="566" text-anchor="middle" fill="#6B7280" font-family="Be Vietnam Pro, system-ui, sans-serif" font-size="15" font-weight="500">Tem nhựa sữa</text></svg>