<svg xmlns="http://www.w3.org/2000/svg" viewBox="0 0 800 600" width="800" height="600" role="img" aria-label="Tem trong suốt"><rect width="800" height="600" fill="#F6F7F9"/><g stroke="#6B7280" stroke-width="1.25" opacity=".55"><path d="M18 18h22M18 18v22"/><path d="M782 18h-22M782 18v22"/><path d="M18 582h22M18 582v-22"/><path d="M782 582h-22M782 582v-22"/></g><g fill="#D9DCE3" opacity=".6"><rect x="180" y="110" width="14" height="14"/><rect x="180" y="138" width="14" height="14"/><rect x="180" y="166" width="14" height="14"/><rect x="180" y="194" width="14" height="14"/><rect x="180" y="222" width="14" height="14"/><rect x="180" y="250" width="14" height="14"/><rect x="180" y="278" width="14" height="14"/><rect x="180" y="306" width="14" height="14"/><rect x="180" y="334" width="14" height="14"/><rect x="180" y="362" width="14" height="14"/><rect x="180" y="390" width="14" height="14"/><rect x="180" y="418" width="14" height="14"/><rect x="180" y="446" width="14" height="14"/><rect x="194" y="124" width="14" height="14"/><rect x="194" y="152" width="14" height="14"/><rect x="194" y="180" width="14" height="14"/><rect x="194" y="208" width="14" height="14"/><rect x="194" y="236" width="14" height="14"/><rect x="194" y="264" width="14" height="14"/><rect x="194" y="292" width="14" height="14"/><rect x="194" y="320" width="14" height="14"/><rect x="194" y="348" width="14" height="14"/><rect x="194" y="376" width="14" height="14"/><rect x="194" y="404" width="14" height="14"/><rect x="194" y="432" width="14" height="14"/><rect x="194" y="460" width="14" height="10"/><rect x="208" y="110" width="14" height="14"/><rect x="208" y="138" width="14" height="14"/><rect x="208" y="166" width="14" height="14"/><rect x="208" y="194" width="14" height="14"/><rect x="208" y="222" width="14" height="14"/><rect x="208" y="250" width="14" height="14"/><rect x="208" y="278" width="14" height="14"/><rect x="208" y="306" width="14" height="14"/><rect x="208" y="334" width="14" height="14"/><rect x="208" y="362" width="14" height="14"/><rect x="208" y="390" width="14" height="14"/><rect x="208" y="418" width="14" height="14"/><rect x="208" y="446" width="14" height="14"/><rect x="222" y="124" width="14" height="14"/><rect x="222" y="152" width="14" height="14"/><rect x="222" y="180" width="14" height="14"/><rect x="222" y="208" width="14" height="14"/><rect x="222" y="236" width="14" height="14"/><rect x="222" y="264" width="14" height="14"/><rect x="222" y="292" width="14" height="14"/><rect x="222" y="320" width="14" height="14"/><rect x="222" y="348" width="14" height="14"/><rect x="222" y="376" width="14" height="14"/><rect x="222" y="404" width="14" height="14"/><rect x="222" y="432" width="14" height="14"/><rect x="222" y="460" width="14" height="10"/><rect x="236" y="110" width="14" height="14"/><rect x="236" y="138" width="14" height="14"/><rect x="236" y="166" width="14" height="14"/><rect x="236" y="194" width="14" height="14"/><rect x="236" y="222" width="14" height="14"/><rect x="236" y="250" width="14" height="14"/><rect x="236" y="278" width="14" height="14"/><rect x="236" y="306" width="14" height="14"/><rect x="236" y="334" width="14" height="14"/><rect x="236" y="362" width="14" height="14"/><rect x="236" y="390" width="14" height="14"/><rect x="236" y="418" width="14" height="14"/><rect x="236" y="446" width="14" height="14"/><rect x="250" y="124" width="14" height="14"/><rect x="250" y="152" width="14" height="14"/><rect x="250" y="180" width="14" height="14"/><rect x="250" y="208" width="14" height="14"/><rect x="250" y="236" width="14" height="14"/><rect x="250" y="264" width="14" height="14"/><rect x="250" y="292" width="14" height="14"/><rect x="250" y="320" width="14" height="14"/><rect x="250" y="348" width="14" height="14"/><rect x="250" y="376" width="14" height="14"/><rect x="250" y="404" width="14" height="14"/><rect x="250" y="432" width="14" height="14"/><rect x="250" y="460" width="14" height="10"/><rect x="264" y="110" width="14" height="14"/><rect x="264" y="138" width="14" height="14"/><rect x="264" y="166" width="14" height="14"/><rect x="264" y="194" width="14" height="14"/><rect x="264" y="222" width="14" height="14"/><rect x="264" y="250" width="14" height="14"/><rect x="264" y="278" width="14" height="14"/><rect x="264" y="306" width="14" height="14"/><rect x="264" y="334" width="14" height="14"/><rect x="264" y="362" width="14" height="14"/><rect x="264" y="390" width="14" height="14"/><rect x="264" y="418" width="14" height="14"/><rect x="264" y="446" width="14" height="14"/><rect x="278" y="124" width="14" height="14"/><rect x="278" y="152" width="14" height="14"/><rect x="278" y="180" width="14" height="14"/><rect x="278" y="208" width="14" height="14"/><rect x="278" y="236" width="14" height="14"/><rect x="278" y="264" width="14" height="14"/><rect x="278" y="292" width="14" height="14"/><rect x="278" y="320" width="14" height="14"/><rect x="278" y="348" width="14" height="14"/><rect x="278" y="376" width="14" height="14"/><rect x="278" y="404" width="14" height="14"/><rect x="278" y="432" width="14" height="14"/><rect x="278" y="460" width="14" height="10"/><rect x="292" y="110" width="14" height="14"/><rect x="292" y="138" width="14" height="14"/><rect x="292" y="166" width="14" height="14"/><rect x="292" y="194" width="14" height="14"/><rect x="292" y="222" width="14" height="14"/><rect x="292" y="250" width="14" height="14"/><rect x="292" y="278" width="14" height="14"/><rect x="292" y="306" width="14" height="14"/><rect x="292" y="334" width="14" height="14"/><rect x="292" y="362" width="14" height="14"/><rect x="292" y="390" width="14" height="14"/><rect x="292" y="418" width="14" height="14"/><rect x="292" y="446" width="14" height="14"/><rect x="306" y="124" width="14" height="14"/><rect x="306" y="152" width="14" height="14"/><rect x="306" y="180" width="14" height="14"/><rect x="306" y="208" width="14" height="14"/><rect x="306" y="236" width="14" height="14"/><rect x="306" y="264" width="14" height="14"/><rect x="306" y="292" width="14" height="14"/><rect x="306" y="320" width="14" height="14"/><rect x="306" y="348" width="14" height="14"/><rect x="306" y="376" width="14" height="14"/><rect x="306" y="404" width="14" height="14"/><rect x="306" y="432" width="14" height="14"/><rect x="306" y="460" width="14" height="10"/><rect x="320" y="110" width="14" height="14"/><rect x="320" y="138" width="14" height="14"/><rect x="320" y="166" width="14" height="14"/><rect x="320" y="194" width="14" height="14"/><rect x="320" y="222" width="14" height="14"/><rect x="320" y="250" width="14" height="14"/><rect x="320" y="278" width="14" height="14"/><rect x="320" y="306" width="14" height="14"/><rect x="320" y="334" width="14" height="14"/><rect x="320" y="362" width="14" height="14"/><rect x="320" y="390" width="14" height="14"/><rect x="320" y="418" width="14" height="14"/><rect x="320" y="446" width="14" height="14"/><rect x="334" y="124" width="14" height="14"/><rect x="334" y="152" width="14" height="14"/><rect x="334" y="180" width="14" height="14"/><rect x="334" y="208" width="14" height="14"/><rect x="334" y="236" width="14" height="14"/><rect x="334" y="264" width="14" height="14"/><rect x="334" y="292" width="14" height="14"/><rect x="334" y="320" width="14" height="14"/><rect x="334" y="348" width="14" height="14"/><rect x="334" y="376" width="14" height="14"/><rect x="334" y="404" width="14" height="14"/><rect x="334" y="432" width="14" height="14"/><rect x="334" y="460" width="14" height="10"/><rect x="348" y="110" width="14" height="14"/><rect x="348" y="138" width="14" height="14"/><rect x="348" y="166" width="14" height="14"/><rect x="348" y="194" width="14" height="14"/><rect x="348" y="222" width="14" height="14"/><rect x="348" y="250" width="14" height="14"/><rect x="348" y="278" width="14" height="14"/><rect x="348" y="306" width="14" height="14"/><rect x="348" y="334" width="14" height="14"/><rect x="348" y="362" width="14" height="14"/><rect x="348" y="390" width="14" height="14"/><rect x="348" y="418" width="14" height="14"/><rect x="348" y="446" width="14" height="14"/><rect x="362" y="124" width="14" height="14"/><rect x="362" y="152" width="14" height="14"/><rect x="362" y="180" width="14" height="14"/><rect x="362" y="208" width="14" height="14"/><rect x="362" y="236" width="14" height="14"/><rect x="362" y="264" width="14" height="14"/><rect x="362" y="292" width="14" height="14"/><rect x="362" y="320" width="14" height="14"/><rect x="362" y="348" width="14" height="14"/><rect x="362" y="376" width="14" height="14"/><rect x="362" y="404" width="14" height="14"/><rect x="362" y="432" width="14" height="14"/><rect x="362" y="460" width="14" height="10"/><rect x="376" y="110" width="14" height="14"/><rect x="376" y="138" width="14" height="14"/><rect x="376" y="166" width="14" height="14"/><rect x="376" y="194" width="14" height="14"/><rect x="376" y="222" width="14" height="14"/><rect x="376" y="250" width="14" height="14"/><rect x="376" y="278" width="14" height="14"/><rect x="376" y="306" width="14" height="14"/><rect x="376" y="334" width="14" height="14"/><rect x="376" y="362" width="14" height="14"/><rect x="376" y="390" width="14" height="14"/><rect x="376" y="418" width="14" height="14"/><rect x="376" y="446" width="14" height="14"/><rect x="390" y="124" width="14" height="14"/><rect x="390" y="152" width="14" height="14"/><rect x="390" y="180" width="14" height="14"/><rect x="390" y="208" width="14" height="14"/><rect x="390" y="236" width="14" height="14"/><rect x="390" y="264" width="14" height="14"/><rect x="390" y="292" width="14" height="14"/><rect x="390" y="320" width="14" height="14"/><rect x="390" y="348" width="14" height="14"/><rect x="390" y="376" width="14" height="14"/><rect x="390" y="404" width="14" height="14"/><rect x="390" y="432" width="14" height="14"/><rect x="390" y="460" width="14" height="10"/><rect x="404" y="110" width="14" height="14"/><rect x="404" y="138" width="14" height="14"/><rect x="404" y="166" width="14" height="14"/><rect x="404" y="194" width="14" height="14"/><rect x="404" y="222" width="14" height="14"/><rect x="404" y="250" width="14" height="14"/><rect x="404" y="278" width="14" height="14"/><rect x="404" y="306" width="14" height="14"/><rect x="404" y="334" width="14" height="14"/><rect x="404" y="362" width="14" height="14"/><rect x="404" y="390" width="14" height="14"/><rect x="404" y="418" width="14" height="14"/><rect x="404" y="446" width="14" height="14"/><rect x="418" y="124" width="14" height="14"/><rect x="418" y="152" width="14" height="14"/><rect x="418" y="180" width="14" height="14"/><rect x="418" y="208" width="14" height="14"/><rect x="418" y="236" width="14" height="14"/><rect x="418" y="264" width="14" height="14"/><rect x="418" y="292" width="14" height="14"/><rect x="418" y="320" width="14" height="14"/><rect x="418" y="348" width="14" height="14"/><rect x="418" y="376" width="14" height="14"/><rect x="418" y="404" width="14" height="14"/><rect x="418" y="432" width="14" height="14"/><rect x="418" y="460" width="14" height="10"/><rect x="432" y="110" width="14" height="14"/><rect x="432" y="138" width="14" height="14"/><rect x="432" y="166" width="14" height="14"/><rect x="432" y="194" width="14" height="14"/><rect x="432" y="222" width="14" height="14"/><rect x="432" y="250" width="14" height="14"/><rect x="432" y="278" width="14" height="14"/><rect x="432" y="306" width="14" height="14"/><rect x="432" y="334" width="14" height="14"/><rect x="432" y="362" width="14" height="14"/><rect x="432" y="390" width="14" height="14"/><rect x="432" y="418" width="14" height="14"/><rect x="432" y="446" width="14" height="14"/><rect x="446" y="124" width="14" height="14"/><rect x="446" y="152" width="14" height="14"/><rect x="446" y="180" width="14" height="14"/><rect x="446" y="208" width="14" height="14"/><rect x="446" y="236" width="14" height="14"/><rect x="446" y="264" width="14" height="14"/><rect x="446" y="292" width="14" height="14"/><rect x="446" y="320" width="14" height="14"/><rect x="446" y="348" width="14" height="14"/><rect x="446" y="376" width="14" height="14"/><rect x="446" y="404" width="14" height="14"/><rect x="446" y="432" width="14" height="14"/><rect x="446" y="460" width="14" height="10"/><rect x="460" y="110" width="14" height="14"/><rect x="460" y="138" width="14" height="14"/><rect x="460" y="166" width="14" height="14"/><rect x="460" y="194" width="14" height="14"/><rect x="460" y="222" width="14" height="14"/><rect x="460" y="250" width="14" height="14"/><rect x="460" y="278" width="14" height="14"/><rect x="460" y="306" width="14" height="14"/><rect x="460" y="334" width="14" height="14"/><rect x="460" y="362" width="14" height="14"/><rect x="460" y="390" width="14" height="14"/><rect x="460" y="418" width="14" height="14"/><rect x="460" y="446" width="14" height="14"/><rect x="474" y="124" width="14" height="14"/><rect x="474" y="152" width="14" height="14"/><rect x="474" y="180" width="14" height="14"/><rect x="474" y="208" width="14" height="14"/><rect x="474" y="236" width="14" height="14"/><rect x="474" y="264" width="14" height="14"/><rect x="474" y="292" width="14" height="14"/><rect x="474" y="320" width="14" height="14"/><rect x="474" y="348" width="14" height="14"/><rect x="474" y="376" width="14" height="14"/><rect x="474" y="404" width="14" height="14"/><rect x="474" y="432" width="14" height="14"/><rect x="474" y="460" width="14" height="10"/><rect x="488" y="110" width="14" height="14"/><rect x="488" y="138" width="14" height="14"/><rect x="488" y="166" width="14" height="14"/><rect x="488" y="194" width="14" height="14"/><rect x="488" y="222" width="14" height="14"/><rect x="488" y="250" width="14" height="14"/><rect x="488" y="278" width="14" height="14"/><rect x="488" y="306" width="14" height="14"/><rect x="488" y="334" width="14" height="14"/><rect x="488" y="362" width="14" height="14"/><rect x="488" y="390" width="14" height="14"/><rect x="488" y="418" width="14" height="14"/><rect x="488" y="446" width="14" height="14"/><rect x="502" y="124" width="14" height="14"/><rect x="502" y="152" width="14" height="14"/><rect x="502" y="180" width="14" height="14"/><rect x="502" y="208" width="14" height="14"/><rect x="502" y="236" width="14" height="14"/><rect x="502" y="264" width="14" height="14"/><rect x="502" y="292" width="14" height="14"/><rect x="502" y="320" width="14" height="14"/><rect x="502" y="348" width="14" height="14"/><rect x="502" y="376" width="14" height="14"/><rect x="502" y="404" width="14" height="14"/><rect x="502" y="432" width="14" height="14"/><rect x="502" y="460" width="14" height="10"/><rect x="516" y="110" width="14" height="14"/><rect x="516" y="138" width="14" height="14"/><rect x="516" y="166" width="14" height="14"/><rect x="516" y="194" width="14" height="14"/><rect x="516" y="222" width="14" height="14"/><rect x="516" y="250" width="14" height="14"/><rect x="516" y="278" width="14" height="14"/><rect x="516" y="306" width="14" height="14"/><rect x="516" y="334" width="14" height="14"/><rect x="516" y="362" width="14" height="14"/><rect x="516" y="390" width="14" height="14"/><rect x="516" y="418" width="14" height="14"/><rect x="516" y="446" width="14" height="14"/><rect x="530" y="124" width="14" height="14"/><rect x="530" y="152" width="14" height="14"/><rect x="530" y="180" width="14" height="14"/><rect x="530" y="208" width="14" height="14"/><rect x="530" y="236" width="14" height="14"/><rect x="530" y="264" width="14" height="14"/><rect x="530" y="292" width="14" height="14"/><rect x="530" y="320" width="14" height="14"/><rect x="530" y="348" width="14" height="14"/><rect x="530" y="376" width="14" height="14"/><rect x="530" y="404" width="14" height="14"/><rect x="530" y="432" width="14" height="14"/><rect x="530" y="460" width="14" height="10"/><rect x="544" y="110" width="14" height="14"/><rect x="544" y="138" width="14" height="14"/><rect x="544" y="166" width="14" height="14"/><rect x="544" y="194" width="14" height="14"/><rect x="544" y="222" width="14" height="14"/><rect x="544" y="250" width="14" height="14"/><rect x="544" y="278" width="14" height="14"/><rect x="544" y="306" width="14" height="14"/><rect x="544" y="334" width="14" height="14"/><rect x="544" y="362" width="14" height="14"/><rect x="544" y="390" width="14" height="14"/><rect x="544" y="418" width="14" height="14"/><rect x="544" y="446" width="14" height="14"/><rect x="558" y="124" width="14" height="14"/><rect x="558" y="152" width="14" height="14"/><rect x="558" y="180" width="14" height="14"/><rect x="558" y="208" width="14" height="14"/><rect x="558" y="236" width="14" height="14"/><rect x="558" y="264" width="14" height="14"/><rect x="558" y="292" width="14" height="14"/><rect x="558" y="320" width="14" height="14"/><rect x="558" y="348" width="14" height="14"/><rect x="558" y="376" width="14" height="14"/><rect x="558" y="404" width="14" height="14"/><rect x="558" y="432" width="14" height="14"/><rect x="558" y="460" width="14" height="10"/><rect x="572" y="110" width="14" height="14"/><rect x="572" y="138" width="14" height="14"/><rect x="572" y="166" width="14" height="14"/><rect x="572" y="194" width="14" height="14"/><rect x="572" y="222" width="14" height="14"/><rect x="572" y="250" width="14" height="14"/><rect x="572" y="278" width="14" height="14"/><rect x="572" y="306" width="14" height="14"/><rect x="572" y="334" width="14" height="14"/><rect x="572" y="362" width="14" height="14"/><rect x="572" y="390" width="14" height="14"/><rect x="572" y="418" width="14" height="14"/><rect x="572" y="446" width="14" height="14"/><rect x="586" y="124" width="14" height="14"/><rect x="586" y="152" width="14" height="14"/><rect x="586" y="180" width="14" height="14"/><rect x="586" y="208" width="14" height="14"/><rect x="586" y="236" width="14" height="14"/><rect x="586" y="264" width="14" height="14"/><rect x="586" y="292" width="14" height="14"/><rect x="586" y="320" width="14" height="14"/><rect x="586" y="348" width="14" height="14"/><rect x="586" y="376" width="14" height="14"/><rect x="586" y="404" width="14" height="14"/><rect x="586" y="432" width="14" height="14"/><rect x="586" y="460" width="14" height="10"/><rect x="600" y="110" width="14" height="14"/><rect x="600" y="138" width="14" height="14"/><rect x="600" y="166" width="14" height="14"/><rect x="600" y="194" width="14" height="14"/><rect x="600" y="222" width="14" height="14"/><rect x="600" y="250" width="14" height="14"/><rect x="600" y="278" width="14" height="14"/><rect x="600" y="306" width="14" height="14"/><rect x="600" y="334" width="14" height="14"/><rect x="600" y="362" width="14" height="14"/><rect x="600" y="390" width="14" height="14"/><rect x="600" y="418" width="14" height="14"/><rect x="600" y="446" width="14" height="14"/><rect x="614" y="124" width="6" height="14"/><rect x="614" y="152" width="6" height="14"/><rect x="614" y="180" width="6" height="14"/><rect x="614" y="208" width="6" height="14"/><rect x="614" y="236" width="6" height="14"/><rect x="614" y="264" width="6" height="14"/><rect x="614" y="292" width="6" height="14"/><rect x="614" y="320" width="6" height="14"/><rect x="614" y="348" width="6" height="14"/><rect x="614" y="376" width="6" height="14"/><rect x="614" y="404" width="6" height="14"/><rect x="614" y="432" width="6" height="14"/><rect x="614" y="460" width="6" height="10"/></g><rect x="180" y="110" width="440" height="360" rx="4" fill="#FFFFFF" opacity=".35" stroke="#D9DCE3"/><circle cx="248" cy="178" r="40" fill="#0057FF" opacity=".3" stroke="#0057FF" stroke-width="1.5"/><circle cx="352" cy="178" r="40" fill="#0057FF" opacity=".3" stroke="#0057FF" stroke-width="1.5"/><circle cx="456" cy="178" r="40" fill="#0057FF" opacity=".3" stroke="#0057FF" stroke-width="1.5"/><circle cx="560" cy="178" r="40" fill="#0057FF" opacity=".3" stroke="#0057FF" stroke-width="1.5"/><circle cx="248" cy="282" r="40" fill="#0057FF" opacity=".3" stroke="#0057FF" stroke-width="1.5"/><circle cx="352" cy="282" r="40" fill="#0057FF" opacity=".3" stroke="#0057FF" stroke-width="1.5"/><circle cx="456" cy="282" r="40" fill="#0057FF" opacity=".3" stroke="#0057FF" stroke-width="1.5"/><circle cx="560" cy="282" r="40" fill="#0057FF" opacity=".3" stroke="#0057FF" stroke-width="1.5"/><circle cx="248" cy="386" r="40" fill="#0057FF" opacity=".3" stroke="#0057FF" stroke-width="1.5"/><circle cx="352" cy="386" r="40" fill="#0057FF" opacity=".3" stroke="#0057FF" stroke-width="1.5"/><circle cx="456" cy="386" r="40" fill="#0057FF" opacity=".3" stroke="#0057FF" stroke-width="1.5"/><circle cx="560" cy="386" r="40" fill="#0057FF" opacity=".3" stroke="#0057FF" stroke-width="1.5"/><text x="400.0" y="566" text-anchor="middle" fill="#6B7280" font-family="Be Vietnam Pro, system-ui, sans-serif" font-size="15" font-weight="500">Tem trong suốt</text></svg>