<svg xmlns="http://www.w3.org/2000/svg" viewBox="0 0 800 600" width="800" height="600" role="img" aria-label="Tem nhựa sữa"><rect width="800" height="600" fill="#F6F7F9"/><g stroke="#6B7280" stroke-width="1.25" opacity=".55"><path d="M18 18h22M18 18v22"/><path d="M782 18h-22M782 18v22"/><path d="M18 582h22M18 582v-22"/><path d="M782 582h-22M782 582v-22"/></g><rect x="180" y="110" width="440" height="360" rx="4" fill="#FFFFFF" stroke="#D9DCE3"/><circle cx="237" cy="167" r="30" fill="#0057FF" opacity=".16" stroke="#0057FF" stroke-width="1.5"/><circle cx="321" cy="167" r="30" fill="#0057FF" opacity=".16" stroke="#0057FF" stroke-width="1.5"/><circle cx="405" cy="167" r="30" fill="#0057FF" opacity=".16" stroke="#0057FF" stroke-width="1.5"/><circle cx="489" cy="167" r="30" fill="#0057FF" opacity=".16" stroke="#0057FF" stroke-width="1.5"/><circle cx="573" cy="167" r="30" fill="#0057FF" opacity=".16" stroke="#0057FF" stroke-width="1.5"/><circle cx="237" cy="251" r="30" fill="#0057FF" opacity=".16" stroke="#0057FF" stroke-width="1.5"/><circle cx="321" cy="251" r="30" fill="#0057FF" opacity=".16" stroke="#0057FF" stroke-width="1.5"/><circle cx="405" cy="251" r="30" fill="#0057FF" opacity=".16" stroke="#0057FF" stroke-width="1.5"/><circle cx="489" cy="251" r="30" fill="#0057FF" opacity=".16" stroke="#0057FF" stroke-width="1.5"/><circle cx="573" cy="251" r="30" fill="#0057FF" opacity=".16" stroke="#0057FF" stroke-width="1.5"/><circle cx="237" cy="335" r="30" fill="#0057FF" opacity=".16" stroke="#0057FF" stroke-width="1.5"/><circle cx="321" cy="335" r="30" fill="#0057FF" opacity=".16" stroke="#0057FF" stroke-width="1.5"/><circle cx="405" cy="335" r="30" fill="#0057FF" opacity=".16" stroke="#0057FF" stroke-width="1.5"/><circle cx="489" cy="335" r="30" fill="#0057FF" opacity=".16" stroke="#0057FF" stroke-width="1.5"/><circle cx="573" cy="335" r="30" fill="#0057FF" opacity=".16" stroke="#0057FF" stroke-width="1.5"/><circle cx="237" cy="419" r="30" fill="#0057FF" opacity=".16" stroke="#0057FF" stroke-width="1.5"/><circle cx="321" cy="419" r="30" fill="#0057FF" opacity=".16" stroke="#0057FF" stroke-width="1.5"/><circle cx="405" cy="419" r="30" fill="#0057FF" opacity=".16" stroke="#0057FF" stroke-width="1.5"/><circle cx="489" cy="419" r="30" fill="#0057FF" opacity=".16" stroke="#0057FF" stroke-width="1.5"/><circle cx="573" cy="419" r="30" fill="#0057FF" opacity=".16" stroke="#0057FF" stroke-width="1.5"/><text x="400.0" y="566" text-anchor="middle" fill="#6B7280" font-family="Be Vietnam Pro, system-ui, sans-serif" font-size="15" font-weight="500">Tem nhựa sữa</text></svg>