<svg xmlns="http://www.w3.org/2000/svg" viewBox="0 0 800 600" width="800" height="600" role="img" aria-label="Thi công mặt tiền"><rect width="800" height="600" fill="#F6F7F9"/><g stroke="#6B7280" stroke-width="1.25" opacity=".55"><path d="M18 18h22M18 18v22"/><path d="M782 18h-22M782 18v22"/><path d="M18 582h22M18 582v-22"/><path d="M782 582h-22M782 582v-22"/></g><rect x="110" y="120" width="580" height="330" fill="#FFFFFF" stroke="#D9DCE3"/><rect x="110" y="120" width="580" height="80" fill="#0057FF"/><rect x="180" y="148" width="220" height="24" rx="4" fill="#FFFFFF" opacity=".95"/><circle cx="620" cy="160" r="20" fill="#EC008C"/><rect x="150" y="240" width="180" height="170" rx="3" fill="#0057FF" opacity=".12" stroke="#0057FF" stroke-width="1.5"/><rect x="470" y="240" width="180" height="170" rx="3" fill="#0057FF" opacity=".12" stroke="#0057FF" stroke-width="1.5"/><rect x="350" y="240" width="100" height="210" rx="3" fill="#F6F7F9" stroke="#D9DCE3"/><circle cx="432" cy="345" r="5" fill="#6B7280"/><path d="M110 450h580" stroke="#6B7280" stroke-width="4"/><rect x="150" y="200" width="500" height="14" fill="#EC008C" opacity=".7"/><text x="400.0" y="566" text-anchor="middle" fill="#6B7280" font-family="Be Vietnam Pro, system-ui, sans-serif" font-size="15" font-weight="500">Thi công mặt tiền</text></svg>