<svg xmlns="http://www.w3.org/2000/svg" viewBox="0 0 800 600" width="800" height="600" role="img" aria-label="Voucher"><rect width="800" height="600" fill="#F6F7F9"/><g stroke="#6B7280" stroke-width="1.25" opacity=".55"><path d="M18 18h22M18 18v22"/><path d="M782 18h-22M782 18v22"/><path d="M18 582h22M18 582v-22"/><path d="M782 582h-22M782 582v-22"/></g><rect x="170" y="200" width="460" height="200" rx="10" fill="#FFFFFF" stroke="#D9DCE3"/><rect x="170" y="200" width="150" height="200" rx="10" fill="#EC008C"/><rect x="310" y="200" width="12" height="200" fill="#FFFFFF"/><path d="M322 200v200" stroke="#6B7280" stroke-width="1.5" stroke-dasharray="7 6"/><circle cx="322" cy="200" r="11" fill="#F6F7F9"/><circle cx="322" cy="400" r="11" fill="#F6F7F9"/><text x="245" y="290" text-anchor="middle" fill="#FFFFFF" font-family="Be Vietnam Pro, system-ui, sans-serif" font-size="42" font-weight="700">10%</text><text x="245" y="325" text-anchor="middle" fill="#FFFFFF" font-family="Be Vietnam Pro, system-ui, sans-serif" font-size="14" opacity=".9">GIẢM GIÁ</text><rect x="356" y="244" width="180" height="16" rx="3" fill="#101114" opacity=".8"/><rect x="356" y="276" width="130" height="10" rx="3" fill="#6B7280" opacity=".5"/><rect x="356" y="330" width="150" height="30" rx="4" fill="#F6F7F9" stroke="#D9DCE3"/><rect x="366" y="336" width="4" height="18" fill="#101114" opacity=".7"/><rect x="373" y="336" width="2" height="18" fill="#101114" opacity=".7"/><rect x="380" y="336" width="2" height="18" fill="#101114" opacity=".7"/><rect x="387" y="336" width="4" height="18" fill="#101114" opacity=".7"/><rect x="394" y="336" width="2" height="18" fill="#101114" opacity=".7"/><rect x="401" y="336" width="2" height="18" fill="#101114" opacity=".7"/><rect x="408" y="336" width="4" height="18" fill="#101114" opacity=".7"/><rect x="415" y="336" width="2" height="18" fill="#101114" opacity=".7"/><rect x="422" y="336" width="2" height="18" fill="#101114" opacity=".7"/><rect x="429" y="336" width="4" height="18" fill="#101114" opacity=".7"/><rect x="436" y="336" width="2" height="18" fill="#101114" opacity=".7"/><rect x="443" y="336" width="2" height="18" fill="#101114" opacity=".7"/><rect x="450" y="336" width="4" height="18" fill="#101114" opacity=".7"/><rect x="457" y="336" width="2" height="18" fill="#101114" opacity=".7"/><rect x="464" y="336" width="2" height="18" fill="#101114" opacity=".7"/><rect x="471" y="336" width="4" height="18" fill="#101114" opacity=".7"/><rect x="478" y="336" width="2" height="18" fill="#101114" opacity=".7"/><rect x="485" y="336" width="2" height="18" fill="#101114" opacity=".7"/><rect x="492" y="336" width="4" height="18" fill="#101114" opacity=".7"/><text x="400.0" y="566" text-anchor="middle" fill="#6B7280" font-family="Be Vietnam Pro, system-ui, sans-serif" font-size="15" font-weight="500">Voucher</text></svg>